<?xml version="1.0" standalone="no"?><!DOCTYPE svg PUBLIC "-//W3C//DTD SVG 1.1//EN" "http://www.w3.org/Graphics/SVG/1.1/DTD/svg11.dtd"><svg t="1774770959790" class="icon" viewBox="0 0 1024 1024" version="1.1" xmlns="http://www.w3.org/2000/svg" p-id="5604" xmlns:xlink="http://www.w3.org/1999/xlink" width="140" height="140"><path d="M281.758187 192.128h453.973333a64.778667 64.778667 0 0 1 64.394667 57.685333l57.002666 518.229334a64.778667 64.778667 0 0 1-16.138666 50.314666 64.778667 64.778667 0 0 1-48.245334 21.557334H224.766187a64.778667 64.778667 0 0 1-48.256-21.557334A64.778667 64.778667 0 0 1 160.37152 768.042667L217.374187 249.813333A64.778667 64.778667 0 0 1 281.768853 192.128z m65.066666 194.336a161.952 161.952 0 0 0 161.952 161.941333 161.952 161.952 0 0 0 161.941334-161.941333 32.394667 32.394667 0 0 0-32.384-32.384 32.384 32.384 0 0 0-32.384 32.384 97.173333 97.173333 0 0 1-97.173334 97.162667 97.173333 97.173333 0 0 1-97.173333-97.162667 32.384 32.384 0 0 0-16.192-28.053333 32.384 32.384 0 0 0-32.394667 0 32.384 32.384 0 0 0-16.192 28.053333z m0 0" fill="#1C87FF" p-id="5605"></path></svg>